<svg xmlns="http://www.w3.org/2000/svg" xmlns:xlink="http://www.w3.org/1999/xlink" version="1.0" width="1022" height="768" viewBox="0 0 312.781 235"><path d="M0 0v93.406h19.719V0H0z" id="a" fill="#a80c2f"/><path d="M32.188 0v63.813h19.718V0H32.188z" id="b" fill="#a80c2f"/><use transform="translate(64.344)" xlink:href="#a"/><path d="M96.406 0v18.688h19.844V0H96.406z" fill="#a80c2f"/><path d="M96.563 29.5v63.813h19.718V29.5H96.562z" fill="#918f90"/><path d="M128.563 0v18.688h52.03V0h-52.03z" fill="#a80c2f"/><use transform="translate(96.5 29.594)" xlink:href="#b"/><path d="M128.625 148.562v18.532h4.5l-.25-11.688c-.079-1.761-.077-2.061-.156-3.531l.812 3.313 3.375 11.906h3.969l3.5-12.438c.21-.789.232-.92.469-1.969l.156-.656-.031 1.844-.313 13.219h4.438v-18.531h-6.75l-2.969 11.062c-.21.866-.206.995-.469 2.281l-.656-2.937-2.844-10.406h-6.781z" fill="#a80c2f"/><path d="M158.562 153.03c-1.6 0-3.207.19-4.467 1.186-1.233.973-1.356 2.116-1.434 3.06h4.026c.106-.498.337-1.616 2.123-1.616 1.444 0 1.515 1.054 1.569 1.684v.746c-1.706.315-4.31.779-5.413 1.253-1.13.47-2.908 1.735-2.908 3.94 0 1.916 1.354 4.189 4.505 4.189 2.02 0 3.166-.863 4.189-1.626v1.243h3.969c-.315-.472-.411-.683-.411-2.152v-7.966c0-3.543-4.067-3.94-5.748-3.94zm1.817 7.498c-.026 1.418-.106 2.66-1.444 3.5-.42.265-.868.47-1.368.47-.945 0-1.54-.75-1.54-1.406 0-1.05 1.04-1.42 1.722-1.684l2.63-.88z" id="d" fill="#a80c2f"/><path d="M172.906 152.937c-3.832 0-5.781 2.335-5.781 4.594 0 1.023.429 1.96 1.031 2.563.604.606 1.441.95 2.281 1.187.605.184 1.242.333 1.844.438.789.131 1.74.186 2.344.5.237.132.531.338.531.812 0 1.024-1.496 1.344-2.469 1.344-1.52 0-2.867-.83-3.968-1.906l-2.563 2.312c.866.814 2.85 2.656 6.656 2.656 3.23 0 6.47-1.585 6.47-4.812 0-3.258-3.182-4.001-5.938-4.5-1.311-.236-2.188-.368-2.188-1.156 0-.394.363-1.032 1.938-1.032.945 0 2.15.377 3.437 1.375l2.5-2.312c-.946-.658-2.895-2.063-6.125-2.063z" id="c" fill="#a80c2f"/><use transform="translate(13.688)" xlink:href="#c"/><use transform="translate(42.66)" xlink:href="#d"/><path d="M216.625 153.031c-4.567 0-6.875 3.354-6.875 7.344 0 5.591 4.156 7.156 6.781 7.156a6.808 6.808 0 003.938-1.219c1.102-.787 1.657-1.65 2.156-2.437l-3.031-1.594a2.915 2.915 0 01-.625 1.094c-.841.945-1.821.969-2.031.969-2.153 0-3.063-2.283-3.063-4.094 0-1.653.759-4.156 2.938-4.156a2.6 2.6 0 011.5.469c.657.47.92.938 1.156 1.437l3-1.688c-1.734-2.86-4.321-3.28-5.844-3.28z" id="h" fill="#a80c2f"/><path d="M223.25 148.531v18.563h4.063v-6.813c0-1.181.005-2.324.53-3.031.34-.445.948-.781 1.657-.781.42 0 1.481.11 1.875 1.344.158.472.188 1.022.188 2.125v7.156h4v-9c0-1.786-.2-3.07-1.407-4.094-.814-.682-1.907-.969-2.906-.969-2.178 0-3.36 1.236-3.938 1.813v-6.313h-4.062z" id="i" fill="#a80c2f"/><path d="M239 153.375V162c0 2.23.135 3.036.844 4.031.945 1.314 2.607 1.469 3.5 1.469.894 0 1.781-.236 2.594-.656.735-.369.98-.616 1.375-1.063v1.313h4.03v-13.719h-4.03v8.531c-.027.734-.07 1.444-.938 1.969a2.651 2.651 0 01-1.375.344c-.813 0-1.357-.373-1.594-.688-.314-.42-.312-1.02-.312-1.625v-8.531H239z" id="f" fill="#a80c2f"/><use transform="translate(86.969)" xlink:href="#c"/><path d="M274.755 152.935c-5.408 0-7.04 4.257-7.04 7.565 0 4.489 2.837 7.096 6.906 7.096 2.205 0 4.01-.838 5.193-1.941.708-.656 1.18-1.355 1.655-2.066l-3.06-1.53c-.5.971-1.268 2.41-3.473 2.41-2.177 0-3.154-1.699-3.127-3.405h9.813c-.051-1.547-.146-4.244-1.932-6.16-1.759-1.89-4.12-1.97-4.935-1.97zm-.039 2.907c.708 0 1.47.256 1.97.756.577.603.677 1.353.756 1.932h-5.595c.133-.58.26-1.204.813-1.808a2.787 2.787 0 012.056-.88z" id="g" fill="#a80c2f"/><path d="M284.469 149.437v4.25h-2v2.47h2v6.593c0 1.31.012 2.28.562 3.094.866 1.26 2.39 1.343 3.781 1.343.735 0 1.258-.055 2.125-.187v-3.156l-1.437.03c-1.074 0-1.056-.69-1.031-1.53v-6.188h2.656v-2.437h-2.656v-4.282h-4z" id="e" fill="#a80c2f"/><use transform="translate(8.25)" xlink:href="#e"/><use transform="translate(133.5)" xlink:href="#c"/><path d="M128.594 180.062v18.532h4.625v-18.532h-4.625z" fill="#a80c2f"/><use transform="rotate(180 194.078 176.008)" xlink:href="#f"/><use transform="translate(-15.281 31.5)" xlink:href="#c"/><use transform="translate(-117.594 31.5)" xlink:href="#e"/><path d="M175.72 180.03v3.127h3.997v-3.128h-3.998zm0 4.848v13.715h3.997v-13.715h-3.998z" fill="#a80c2f"/><use transform="translate(-100.625 31.5)" xlink:href="#e"/><use transform="translate(-46.484 31.5)" xlink:href="#f"/><use transform="translate(-75.484 31.5)" xlink:href="#e"/><use transform="translate(-50.885 31.5)" xlink:href="#g"/><path d="M805.969 602.781c-.532.003-1.06.015-1.563.031-15.089.47-22.656 10.822-22.656 23.688 0 16.554 11.485 23.812 24.094 23.812 17.497 0 24-12.49 24-23.812 0-8.152-4.012-22.658-22.282-23.688a25.749 25.749 0 00-1.593-.03zm-.188 10.407c1.903-.051 4.599.342 7 2.593 2.488 2.402 3.688 6.276 3.688 11.25 0 7.03-3.51 12.75-10.625 12.75-7.377 0-10.844-6.26-10.844-13.375 0-3.087.62-6.204 2.25-8.781 1.805-2.83 4.011-4.149 7.781-4.406.237-.022.478-.024.75-.031z" transform="translate(0 -.023) scale(.30605)" id="j" fill="#a80c2f"/><path d="M261.344 179.781c-1.89 0-3.033.725-3.531 1.406-.525.734-.563 1.662-.563 2.344v1.688h-2.188v2.437h2.157v10.938h4.031v-10.938h2.656v-2.437h-2.687c-.028-1.838.041-2.156 1.562-2.156h.969v-3.032c-.787-.105-1.593-.25-2.406-.25zm-137.469 31.75v3.688h4.844v14.875h4.625v-14.875h4.812v-3.688h-14.281z" fill="#a80c2f"/><use transform="translate(-130.575 63)" xlink:href="#g"/><use transform="translate(-57.281 63)" xlink:href="#h"/><use transform="translate(-57.25 63)" xlink:href="#i"/><use transform="rotate(180 216.586 191.758)" xlink:href="#f"/><use transform="translate(-42.502 31.5)" xlink:href="#j"/><path d="M214.094 211.562v18.532h4.062v-18.532h-4.062z" fill="#a80c2f"/><use transform="translate(-18.425 31.498)" xlink:href="#j"/><path d="M243.031 216.153c-4.541 0-5.815 3.966-5.815 6.723 0 2.363.696 4.471 2.535 5.653.892.603 1.998.908 3.127.908 1.862 0 2.837-.63 3.625-1.157v1.473c0 1.13.002 2.563-2.44 2.563-.63 0-1.02-.127-1.28-.258-1.078-.5-1.134-1.356-1.187-1.961h-4.189c0 .735-.016 2.109 1.062 3.185.734.762 2.52 1.721 5.25 1.721 1.233 0 3.296-.222 4.687-1.061 1.995-1.156 2.042-2.913 2.094-4.41v-13.16h-3.777v1.282c-.604-.578-1.59-1.501-3.692-1.501zm.746 3.003c1.155-.051 1.875.505 2.19 1.004.446.658.497 2.031.497 2.688 0 1.942-.448 3.529-2.496 3.529-2.494 0-2.592-2.373-2.592-3.53 0-1.942.486-3.61 2.4-3.691zm8.473-2.781l4.094 13.25c.08.287.187.626.187.969 0 .97-1.031.972-1.687 1h-1.406v3.187h2.906c1.049-.026 1.961-.069 2.906-1.094.681-.761.964-1.607 1.281-2.5l4.844-14.812h-4.313l-2.25 9.844-2.25-9.844h-4.312z" fill="#a80c2f"/></svg>